<svg xmlns="http://www.w3.org/2000/svg" xmlns:xlink="http://www.w3.org/1999/xlink" width="98" height="98" viewBox="0 0 98 98"><defs><path id="6xe7a" d="M555 4230a2.05 2.05 0 0 1-2.4 2.02l-16.6 16.6v-1.93l15.38-15.38a2.03 2.03 0 0 1 0-2.62L536 4213.3v-1.93l16.6 16.6.34-.03c1.14 0 2.06.92 2.06 2.05zm-46.98 46.6a2.05 2.05 0 1 1-4.04 0l-11.6-11.6h1.93l10.38 10.38a2.03 2.03 0 0 1 2.62 0L517.7 4265h1.93zm-48.63-44.58a2.05 2.05 0 1 1 0-4.04l18.61-18.6v1.93l-17.38 17.38a2.03 2.03 0 0 1 0 2.62L478 4248.7v1.93zm44.6-48.63a2.05 2.05 0 1 1 4.04 0l14.6 14.61h-1.94l-13.38-13.38a2.03 2.03 0 0 1-2.62 0L491.3 4198h-1.94z"/><path id="6xe7b" d="M532 4206.11v49.87a5.04 5.04 0 0 1-5.05 5.02h-40.9a5.04 5.04 0 0 1-5.05-5.02v-49.87a5.04 5.04 0 0 1 5.05-5.02h8.24v-.07c0-1.08.9-1.97 1.98-1.97h5.18v-.06a3 3 0 0 1 3-2.99h4.1a3 3 0 0 1 3 2.99v.06h5.18c1.09 0 1.98.89 1.98 1.97v.07h8.24a5.04 5.04 0 0 1 5.05 5.02zm-14.29.96a5.05 5.05 0 0 1-4.05 2.03h-14.32c-1.66 0-3.13-.8-4.05-2.03H487.07a.06.06 0 0 0-.06.06v47.83c0 .03.03.06.06.06h38.86c.03 0 .06-.03.06-.06v-47.83a.06.06 0 0 0-.06-.06H517.7zm-14.34-8.02h6.26v-.06c0-.6-.49-1.08-1.08-1.08h-4.1c-.6 0-1.08.48-1.08 1.08zm-7.16 5.03c0 1.72 1.4 3.11 3.13 3.11h14.32c1.72 0 3.13-1.4 3.13-3.11v-2.03-1.03a.06.06 0 0 0-.06-.06h-20.46a.06.06 0 0 0-.06.06zm33.87 2.03c0-1.72-1.4-3.11-3.13-3.11h-8.24v1.08c0 .37-.05.73-.12 1.08h7.34c1.1 0 1.98.88 1.98 1.97v47.83c0 1.09-.89 1.97-1.98 1.97h-38.86c-1.1 0-1.98-.88-1.98-1.97v-47.83c0-1.09.89-1.97 1.98-1.97h7.34a5 5 0 0 1-.12-1.08V4203h-8.24a3.13 3.13 0 0 0-3.13 3.11v49.87c0 1.71 1.4 3.11 3.13 3.11h40.9c1.73 0 3.13-1.4 3.13-3.11zm-28.76 34.73v7.88c0 .6-.48 1.09-1.08 1.09h-7.93c-.6 0-1.08-.49-1.08-1.09v-7.88c0-.6.48-1.08 1.08-1.08h7.93c.6 0 1.08.48 1.08 1.08zm-1.91.83h-6.27v6.23h6.27zm4.09-12.15c0-.53.43-.96.95-.96h10.23a.96.96 0 1 1 0 1.9h-10.23a.96.96 0 0 1-.95-.94zm17.25 4.07c0 .52-.43.95-.96.95h-15.34a.96.96 0 0 1 0-1.9h15.34c.53 0 .96.42.96.95zm-17.25-17.07c0-.53.43-.96.95-.96h15.23a.96.96 0 1 1 0 1.9h-15.23a.96.96 0 0 1-.95-.94zm7.25 4.07c0 .53-.43.95-.96.95h-5.34a.96.96 0 1 1 0-1.9h5.34c.53 0 .96.42.96.95z"/><path id="6xe7c" d="M503.09 4226.8c.37.38.37.98 0 1.36l-2.05 2.03-3.07 3.06a.96.96 0 0 1-1.35 0l-2.05-2.04a.95.95 0 0 1 0-1.35.96.96 0 0 1 1.36 0l1.37 1.36 2.1-2.1v-.62a.06.06 0 0 0-.06-.06h-6.13a.06.06 0 0 0-.07.06v6.1c0 .04.03.07.07.07h6.13c.04 0 .07-.03.07-.06v-1.02a.96.96 0 0 1 1.92 0v1.02c0 1.08-.9 1.97-1.99 1.97h-6.13c-1.1 0-1.98-.89-1.98-1.97v-6.11c0-1.09.88-1.97 1.98-1.97h6.13c.72 0 1.36.39 1.7.96l.7-.68a.96.96 0 0 1 1.35 0zm.4 15.95c0-.53.44-.96.96-.96h4.1a.96.96 0 1 1 0 1.91h-4.1a.96.96 0 0 1-.95-.95zm17.26 4.07c0 .52-.43.95-.96.95h-15.34a.96.96 0 1 1 0-1.9h15.34c.53 0 .96.42.96.95zm-17.66-33.01c.37.37.37.97 0 1.35l-2.05 2.03-3.07 3.05a.96.96 0 0 1-1.35 0l-2.05-2.03a.95.95 0 0 1 0-1.35.96.96 0 0 1 1.36 0l1.37 1.36 2.1-2.1v-.62a.06.06 0 0 0-.06-.06h-6.13a.06.06 0 0 0-.07.06v6.1c0 .04.03.07.07.07h6.13c.04 0 .07-.03.07-.06v-1.02a.96.96 0 0 1 1.92 0v1.02c0 1.08-.9 1.97-1.99 1.97h-6.13c-1.1 0-1.98-.89-1.98-1.97v-6.11c0-1.09.88-1.97 1.98-1.97h6.13c.72 0 1.36.39 1.7.96l.7-.68a.96.96 0 0 1 1.35 0z"/></defs><g><g transform="translate(-457 -4181)"><g><use fill="#fbd005" xlink:href="#6xe7a"/></g><g><use fill="#38333a" xlink:href="#6xe7b"/></g><g><use fill="#fbd005" xlink:href="#6xe7c"/></g></g></g></svg>