<svg xmlns="http://www.w3.org/2000/svg" xmlns:xlink="http://www.w3.org/1999/xlink" width="98" height="98" viewBox="0 0 98 98"><defs><path id="wrwma" d="M943.94 2482.05l-.33-.03-14.61 14.6v-1.93l13.38-13.38a2.03 2.03 0 0 1 0-2.62l-44.07-44.07a2.03 2.03 0 0 1-2.62 0l-44.07 44.07a2.03 2.03 0 0 1 0 2.62L866 2495.7v1.94l-15.6-15.61a2.05 2.05 0 1 1 0-4.04l44.58-44.59a2.05 2.05 0 1 1 4.04 0l44.59 44.6c.1-.03.22-.04.33-.04a2.05 2.05 0 1 1 0 4.1zm-44.92 44.56a2.05 2.05 0 1 1-4.04 0l-9.6-9.61h1.93l8.38 8.38a2.03 2.03 0 0 1 2.62 0l8.38-8.38h1.93z"/><path id="wrwmb" d="M925 2484.3v12.15c0 1.22-.48 2.36-1.34 3.22l-5.73 5.7a.91.91 0 0 0-.27.64v.43h.92c.5 0 .91.4.91.9v5.75c0 .5-.4.91-.91.91h-12.85c-.5 0-.92-.4-.92-.91v-5.74c0-.5.41-.91.92-.91h.92v-5.37a4.5 4.5 0 0 1 1.34-3.22l6.16-6.1a3.69 3.69 0 0 1 3.5-.96v-6.5a3.66 3.66 0 0 1 3.68-3.64 3.66 3.66 0 0 1 3.67 3.64zm-7.34 23.96h-11.01v3.92h11zm5.5-23.97a1.83 1.83 0 1 0-3.67 0v7.62a3.6 3.6 0 0 1-.15 4.99l-4.56 4.52a.92.92 0 0 1-1.3 0 .9.9 0 0 1 0-1.29l4.56-4.52a1.8 1.8 0 0 0 0-2.58l-.06-.06-.02-.01a1.84 1.84 0 0 0-2.52.07l-6.15 6.11a2.7 2.7 0 0 0-.8 1.93v5.37h7.33v-.43c0-.72.3-1.43.8-1.94l5.74-5.68c.52-.52.8-1.2.8-1.94zm-32.97 23.06v5.74c0 .5-.41.91-.92.91h-12.85c-.5 0-.91-.4-.91-.91v-5.74c0-.5.4-.91.91-.91h.92v-.43c0-.24-.1-.48-.27-.65l-5.73-5.69c-.86-.86-1.34-2-1.34-3.22v-12.16a3.66 3.66 0 0 1 3.67-3.64 3.66 3.66 0 0 1 3.67 3.64v6.5a3.69 3.69 0 0 1 3.51.95l6.16 6.11c.87.86 1.34 2 1.34 3.22v5.37h.92c.5 0 .92.4.92.9zm-11.82-3.28c.51.51.8 1.22.8 1.94v.43h7.35v-5.37a2.7 2.7 0 0 0-.8-1.93l-6.16-6.11a1.84 1.84 0 0 0-2.52-.07l-.02.01-.06.06a1.8 1.8 0 0 0 0 2.58l4.6 4.55a.9.9 0 0 1 0 1.3.92.92 0 0 1-1.3 0l-4.6-4.57a3.6 3.6 0 0 1-.15-4.98v-7.62c0-1-.83-1.82-1.84-1.82-1.01 0-1.83.82-1.83 1.82v12.16c0 .73.28 1.42.8 1.94zm9.98 4.19h-11v3.92h11zm3.36-39.08c.4-.18.66-.57.66-1v-1.54a8.1 8.1 0 0 1-3.13-6.37v-.43a2 2 0 0 1-1.04-1.78v-1.9c0-4.5 3.7-8.16 8.26-8.16h2.08a8.22 8.22 0 0 1 8.26 8.16v.2c0 .74-.42 1.4-1.04 1.75v2.16a8.1 8.1 0 0 1-3.12 6.37v1.54c0 .43.25.82.65 1l-2.17.54a2.98 2.98 0 0 1-.43-1.54v-.4a8.3 8.3 0 0 1-6.38 0v.4c0 .55-.15 1.08-.43 1.54zm12.1-8.91v-1.74c-2.69.32-7.1.26-10.12-2.72a.95.95 0 0 1 0-1.36.98.98 0 0 1 1.38 0c.98.97 3.9 3.12 9.74 1.98.02 0 .04-.03.04-.07v-.2a6.28 6.28 0 0 0-6.31-6.24h-2.08a6.28 6.28 0 0 0-6.31 6.24v1.9l.02.08h.02c.47-.12.96-.41 1.45-.85a.98.98 0 0 1 1.37.05c.37.4.34 1-.05 1.36-.57.52-1.16.9-1.77 1.13v.44a6.28 6.28 0 0 0 6.31 6.23c3.48 0 6.31-2.8 6.31-6.23z"/><path id="wrwmc" d="M891.7 2469.18l-5.65 2.48a5.07 5.07 0 0 0-3.05 4.64v12.74c0 .53.44.96.97.96.54 0 .98-.43.98-.96v-12.74c0-.12 0-.23.02-.34l2.6 2.58c.41.4.63.93.63 1.5v12c0 .53.44.96.98.96.53 0 .97-.43.97-.96v-12a4 4 0 0 0-1.2-2.86l-3.1-3.07c.27-.29.61-.52 1-.7l5.55-2.43 4.13 4.07v23.99c0 .53.43.96.97.96s.97-.43.97-.96v-24l4.13-4.06 5.56 2.44c.38.17.72.4 1 .69l-3.11 3.07a4 4 0 0 0-1.2 2.86v12c0 .53.44.96.97.96.54 0 .98-.43.98-.96v-12c0-.57.22-1.1.63-1.5l2.6-2.58.02.34v12.74c0 .53.44.96.98.96.53 0 .97-.43.97-.96v-12.74c0-2-1.2-3.83-3.05-4.64l-5.66-2.48c-.4-.18-2.45.08-2.17.54l-3.62 3.57-3.62-3.57c.28-.46-1.77-.72-2.17-.54z"/></defs><g><g transform="translate(-848 -2431)"><use fill="#fbd005" xlink:href="#wrwma"/></g><g transform="translate(-848 -2431)"><use fill="#38333a" xlink:href="#wrwmb"/></g><g transform="translate(-848 -2431)"><use fill="#fbd005" xlink:href="#wrwmc"/></g></g></svg>