<svg xmlns="http://www.w3.org/2000/svg" xmlns:xlink="http://www.w3.org/1999/xlink" width="98" height="98" viewBox="0 0 98 98"><defs><path id="gu8ya" d="M751 1936a2.05 2.05 0 0 1-2.4 2.02l-44.58 44.59a2.05 2.05 0 1 1-4.04 0L655.4 1938a2.05 2.05 0 1 1 0-4.04l17.98-17.97h1.94l-18.69 18.69a2.03 2.03 0 0 1 0 2.62l44.07 44.07a2.03 2.03 0 0 1 2.62 0l44.07-44.07c-.3-.36-.49-.8-.49-1.31 0-.5.19-.96.49-1.31L726 1913.3v-1.93l22.6 22.6.34-.03c1.14 0 2.06.92 2.06 2.05zm-51.02-46.6a2.05 2.05 0 1 1 4.04 0l5.6 5.6h-1.93l-4.38-4.38c-.36.3-.8.49-1.31.49-.5 0-.96-.19-1.31-.49l-4.38 4.38h-1.94z"/><path id="gu8yb" d="M677 1917l-3-4 14-18 9 2 16-1 14 10-3 9z"/><path id="gu8yc" d="M720 1938.06l-.63-.98 1.44-.91.62.98a8.47 8.47 0 0 1-.35 9.59v8.26h-1.7v-8.55c0-.2.07-.38.19-.53a6.77 6.77 0 0 0 .43-7.86zM680.25 1898h11.05c2.35 0 4.25 1.9 4.25 4.25v8.5c0 2.35-1.9 4.25-4.25 4.25h-1.7v3.4a.85.85 0 0 1-1.45.6l-4-4h-3.9a4.25 4.25 0 0 1-4.25-4.25v-8.5c0-2.35 1.9-4.25 4.25-4.25zm-2.55 12.75c0 1.4 1.14 2.55 2.55 2.55h4.25c.23 0 .44.09.6.25l2.8 2.8v-2.2c0-.47.38-.85.85-.85h2.55c1.4 0 2.55-1.14 2.55-2.55v-8.5c0-1.4-1.14-2.55-2.55-2.55h-11.05a2.55 2.55 0 0 0-2.55 2.55zm20.87 26.4l.62-.98 1.44.91-.63.98a6.77 6.77 0 0 0 .43 7.86c.12.15.19.34.19.53v8.55h-1.7v-8.26a8.47 8.47 0 0 1-.35-9.6zm-21.72-10.25h7.65c3.19 0 5.8 2.52 5.94 5.7l2.56 4.62v-3.52a5.96 5.96 0 0 1 5.95-5.95h3.1l.03-.02.02.02h1.95c.94 0 1.7-.76 1.7-1.7v-2a8.5 8.5 0 0 1-4.25-7.35v-6.8c0-1.4.35-2.8 1.02-4.03.21-.4.7-.56 1.1-.37l14.4 6.77c.29.14.48.44.48.77v3.66a8.5 8.5 0 0 1-4.25 7.35v2c0 .94.76 1.7 1.7 1.7h5.1a5.96 5.96 0 0 1 5.95 5.95v15.3h-1.7v-15.3c0-2.35-1.9-4.25-4.25-4.25h-2.7l-7.66 10.7a.85.85 0 0 1-.68.35H710a.85.85 0 0 1-.68-.34l-8.08-10.71h-2.29a4.26 4.26 0 0 0-4.25 4.25v6.8a.85.85 0 0 1-1.6.41l-4-7.21h-4.87l8.28 15.3h-1.93l-8.29-15.3h-.34a5.96 5.96 0 0 1-5.95-5.95c0-.47.38-.85.85-.85zm39.95-10.2v-3.12l-13.12-6.18a6.8 6.8 0 0 0-.48 2.5v6.8a6.8 6.8 0 1 0 13.6 0zm-6.82 21.52l2.63-3.67h-5.39zm-4.05-5.37h7.9l2.43-3.4h-.31a3.4 3.4 0 0 1-3.4-3.4v-1.24a8.5 8.5 0 0 1-5.1 0v1.24a3.4 3.4 0 0 1-3.4 3.4h-.68zm-23.98-.85h6.72a4.26 4.26 0 0 0-4.17-3.4h-6.71a4.26 4.26 0 0 0 4.16 3.4z"/><path id="gu8yd" d="M710 1898c7.04 0 12.75 5.7 12.75 12.75v9.35a5.96 5.96 0 0 1-5.95 5.95h-.85v-1.7h.85c2.35 0 4.25-1.9 4.25-4.25v-9.35a11.05 11.05 0 0 0-22.1 0v9.35c0 2.35 1.9 4.25 4.25 4.25h.85v1.7h-.85a5.96 5.96 0 0 1-5.95-5.95v-9.35c0-7.04 5.7-12.75 12.75-12.75zm10 40.06l-.63-.98 1.44-.91.62.98a8.47 8.47 0 0 1-.35 9.59v8.26h-1.7v-8.55c0-.2.07-.38.19-.53a6.77 6.77 0 0 0 .43-7.86zM680 1902h5.92v1.8H680zm7.6 0H691v1.8h-3.38zm-7.6 3.6H691v1.8h-10.99zm0 3.6h5.92v1.8H680z"/></defs><g><g transform="translate(-653 -1887)"><use fill="#fbd005" xlink:href="#gu8ya"/></g><g transform="translate(-653 -1887)"><use fill="#f5f5f7" xlink:href="#gu8yb"/></g><g transform="translate(-653 -1887)"><use fill="#38333a" xlink:href="#gu8yc"/></g><g transform="translate(-653 -1887)"><use fill="#fbd005" xlink:href="#gu8yd"/></g></g></svg>