<svg xmlns="http://www.w3.org/2000/svg" xmlns:xlink="http://www.w3.org/1999/xlink" width="98" height="98" viewBox="0 0 98 98"><defs><path id="ywaaa" d="M553.94 2482.05l-.33-.03-44.6 44.59c.03.1.04.22.04.34a2.05 2.05 0 1 1-4.07-.34L460.4 2482a2.05 2.05 0 1 1 0-4.04l19.61-19.6v1.94l-18.38 18.38a2.03 2.03 0 0 1 0 2.62l44.07 44.07a2.03 2.03 0 0 1 2.62 0l44.07-44.07a2.03 2.03 0 0 1 0-2.62l-44.07-44.07a2.03 2.03 0 0 1-2.62 0l-5.38 5.38h-1.93l6.6-6.6a2.05 2.05 0 1 1 4.04 0l44.59 44.58a2.05 2.05 0 1 1 .34 4.07z"/><path id="ywaab" d="M517.67 2472.22l-2.56-2.58a.92.92 0 0 1-.14-.19 13.35 13.35 0 0 1-8.86 3.36h-.19c-.38 1.73-.76 3.3-1.13 4.68a2.84 2.84 0 0 1-2.74 2.1H490.9c-1.28 0-2.4-.87-2.74-2.1-2.1-7.74-4.15-20.54-4.15-24.46 0-6.63 5.6-12.03 12.47-12.03 3.95 0 7.65 1.8 10 4.84a13.48 13.48 0 0 1 9.73 22.38.9.9 0 0 1 .19.14l2.56 2.57c.49-.27-1.55 1.78-1.28 1.29zm.06-12.9c0-6.43-5.21-11.67-11.62-11.67a11.66 11.66 0 0 0-11.63 11.67c0 6.44 5.22 11.68 11.63 11.68 6.4 0 11.62-5.24 11.62-11.68zm-27.83 17.7c.12.44.52.75.99.75h11.16c.47 0 .87-.31 1-.75.34-1.29.7-2.75 1.06-4.36a13.39 13.39 0 0 1-7.41-3.72h-5.05a.9.9 0 0 1 0-1.81h3.5a13.5 13.5 0 0 1-1.6-3.03h-2.86a.9.9 0 0 1 0-1.81H493c-.21-.96-.33-1.95-.33-2.97v-.06h-2.95a.9.9 0 0 1 0-1.81h3.09c.14-1.05.4-2.06.78-3.02h-3.87a.9.9 0 0 1 0-1.82h4.74a13.58 13.58 0 0 1 2.36-3.02h-5.17a.9.9 0 0 1 0-1.82h7.53c1.5-.9 3.2-1.53 5-1.8-2-2-4.77-3.16-7.71-3.16-5.88 0-10.66 4.59-10.66 10.22 0 3.81 2.02 16.37 4.09 23.99zm.06 4.62h13.02c.63 0 1.14.52 1.14 1.15v6.53a7.67 7.67 0 0 1-7.65 7.68 7.67 7.67 0 0 1-7.65-7.68v-6.53c0-.63.51-1.15 1.14-1.15zm.67 7.68a5.86 5.86 0 0 0 5.84 5.87 5.86 5.86 0 0 0 5.84-5.87v-5.87h-11.68zm1.98-17.36h7.72a.9.9 0 0 1 0 1.82h-7.72a.9.9 0 0 1 0-1.82zm5.79 18.27h-3.86a.9.9 0 0 1 0-1.82h3.86a.9.9 0 0 1 0 1.82z"/><path id="ywaac" d="M518.95 2470.93a3.28 3.28 0 0 1 3.96.56l10.12 10.16a3.31 3.31 0 0 1 0 4.7 3.28 3.28 0 0 1-4.69 0l-10.12-10.16a3.31 3.31 0 0 1-.55-3.97zm11.74 14.58a1.5 1.5 0 0 0 1.06-2.58l-.8-.81-2.13 2.14.8.8c.29.3.66.45 1.07.45zm-11.19-10.6l8.04 8.06 2.13-2.13-8.04-8.07a1.5 1.5 0 0 0-2.13 0 1.5 1.5 0 0 0 0 2.14zm-9.46-22.5a.9.9 0 1 1 1.78.28 226.32 226.32 0 0 1-2.9 14.59.9.9 0 1 1-1.76-.43c.01-.07 1.77-7.46 2.88-14.44zm-12.55 2.08c0-.5.4-.91.9-.91h6.75a.9.9 0 0 1 0 1.81h-6.74a.9.9 0 0 1-.9-.9zm0 5.8c0-.5.4-.9.9-.9h5.8a.9.9 0 0 1 0 1.8h-5.8a.9.9 0 0 1-.9-.9zm2.84 4.9h2.89a.9.9 0 0 1 0 1.81h-2.9a.9.9 0 0 1 0-1.81z"/></defs><g><g transform="translate(-458 -2431)"><use fill="#fbd005" xlink:href="#ywaaa"/></g><g transform="translate(-458 -2431)"><use fill="#38333a" xlink:href="#ywaab"/></g><g transform="translate(-458 -2431)"><use fill="#fbd005" xlink:href="#ywaac"/></g></g></svg>