<svg xmlns="http://www.w3.org/2000/svg" xmlns:xlink="http://www.w3.org/1999/xlink" width="98" height="98" viewBox="0 0 98 98"><defs><path id="fovta" d="M1263 2463v-22h17v22z"/><path id="fovtb" d="M1333.94 2482.05l-.33-.03-44.6 44.59c.03.1.04.22.04.34a2.05 2.05 0 1 1-4.07-.34l-44.59-44.6a2.05 2.05 0 1 1 0-4.04l22.61-22.6v1.94l-21.38 21.38a2.03 2.03 0 0 1 0 2.62l44.07 44.07a2.03 2.03 0 0 1 2.62 0l44.07-44.07a2.03 2.03 0 0 1 0-2.62l-44.07-44.07a2.03 2.03 0 0 1-2.62 0l-8.38 8.38h-1.93l9.6-9.6a2.05 2.05 0 1 1 4.04 0l44.59 44.58a2.05 2.05 0 1 1 .34 4.07z"/><path id="fovtc" d="M1269.98 2463.15a.94.94 0 0 1 1.33 0 .94.94 0 0 1-.66 1.6.94.94 0 0 1-.94-.94c0-.24.1-.49.27-.66zm28.36 29.69a4.72 4.72 0 0 1-3.1 1.16h-28.3a.94.94 0 0 1-.94-.94v-46.12a.94.94 0 0 1 .94-.94H1290c.52 0 .94.42.94.94v2.68l8.88 2.38c.5.14.8.65.67 1.15l-4.6 17.19 3.11 3.12v2.65l-3.72-3.72-.74 2.9c-.1.42-.48.7-.9.7l-18.44.01a1.31 1.31 0 0 0 0 2.63h9.44a.94.94 0 0 1 0 1.87h-12.38a1.31 1.31 0 0 0 0 2.63h12.38a.94.94 0 0 1 0 1.87h-10.37a1.31 1.31 0 0 0 0 2.63h10.37a.94.94 0 1 1 0 1.87h-7.17a1.31 1.31 0 0 0 0 2.63h17.77c.69 0 1.35-.25 1.87-.7l1.89-1.65v2.48zm.1-39.27l-7.5-2v3.46l.63.17a.94.94 0 0 1 .66 1.15 2.53 2.53 0 0 0 1.78 3.1.94.94 0 0 1 .67 1.14l-3.66 13.53h1.88l.97-3.79a.94.94 0 0 1 .16-.33zm-7.5 5.76v7.91l1.7-6.33a4.39 4.39 0 0 1-1.7-1.58zm-10.7 14.8h5.12v-17.83a4.41 4.41 0 0 1-3.36-3.36h-7.06a4.41 4.41 0 0 1-3.36 3.36v2.91a.94.94 0 0 1-1.87 0v-3.75c0-.51.42-.93.93-.93 1.4 0 2.53-1.14 2.53-2.53 0-.52.42-.94.94-.94h8.72c.52 0 .94.42.94.94 0 1.4 1.13 2.53 2.52 2.53.52 0 .94.42.94.93v18.67h1.83v-26.25h-21.18v44.25h6.69a3.17 3.17 0 0 1 0-2.63h-.3a3.2 3.2 0 0 1-2.85-4.61 3.2 3.2 0 0 1-1.71-4.98v-11.88a.94.94 0 0 1 1.87 0v10.67c.22-.05.45-.07.69-.07h.03a3.2 3.2 0 0 1 2.9-4.5h1.5c-1.6-.69 5.13-.69 3.53 0z"/><path id="fovtd" d="M1306.02 2488.65a.94.94 0 0 1 1.33 0 .95.95 0 0 1 0 1.33.94.94 0 0 1-1.6-.66c0-.25.1-.5.27-.67zm-6.15-14.33a2.81 2.81 0 0 1 2.32-1.23h9a2.82 2.82 0 0 1 2.81 2.82v15.28a2.82 2.82 0 0 1-2.81 2.81h-9a2.82 2.82 0 0 1-2.73-2.14zm1.38 16.87c0 .51.42.94.94.94h9c.51 0 .94-.43.94-.94v-15.28a.94.94 0 0 0-.94-.94h-3.56v10.8a.94.94 0 1 1-1.88 0v-10.8h-3.56a.94.94 0 0 0-.94.94v15.28zm-24.54-17.06a4.5 4.5 0 1 1 3.52 0zm1.76-1.52a2.61 2.61 0 1 0 0-5.23 2.61 2.61 0 0 0 0 5.23z"/></defs><g><g transform="translate(-1238 -2431)"><use fill="#f5f5f7" xlink:href="#fovta"/></g><g transform="translate(-1238 -2431)"><g><use fill="#fbd005" xlink:href="#fovtb"/></g><g><use fill="#38333a" xlink:href="#fovtc"/></g><g><use fill="#fbd005" xlink:href="#fovtd"/></g></g></g></svg>