<svg xmlns="http://www.w3.org/2000/svg" xmlns:xlink="http://www.w3.org/1999/xlink" width="98" height="98" viewBox="0 0 98 98"><defs><path id="28dpa" d="M361 1936a2.05 2.05 0 0 1-2.4 2.02l-44.58 44.59a2.05 2.05 0 1 1-4.04 0L265.4 1938a2.05 2.05 0 1 1 0-4.04l15.61-15.6v1.94l-14.38 14.38a2.03 2.03 0 0 1 0 2.62l44.07 44.07a2.03 2.03 0 0 1 2.62 0l44.07-44.07c-.3-.36-.49-.8-.49-1.31 0-.5.19-.96.49-1.31L342 1919.3v-1.93l16.6 16.6.34-.03c1.14 0 2.06.92 2.06 2.05zm-51.02-46.6a2.05 2.05 0 1 1 4.04 0l9.6 9.6h-1.93l-8.38-8.38c-.36.3-.8.49-1.31.49-.5 0-.96-.19-1.31-.49l-3.38 3.38h-1.94z"/><path id="28dpb" d="M291.02 1904.67c3.69-11.5 19.94-11.6 23.71 0h17.45a7.14 7.14 0 0 1 6.82 7.16v33.01c0 3.95-3.2 7.16-7.15 7.16h-40.7a7.16 7.16 0 0 1-7.15-7.16v-33.01c0-3.9 3.14-7.1 7.02-7.16zm10.22-6.91a10.85 10.85 0 0 0-7.65 16.25c.07.11 8.1 15.88 8.22 16.04a1.3 1.3 0 0 0 2.23-.15l8.12-15.89c4.63-7.74-1.8-17.61-10.92-16.25zm-15.6 47.08c0 3.04 2.47 5.51 5.5 5.51h.81v-12.52c0-3.45-2.54-6.54-6.26-6.27h-.04v13.28zm.05-14.93c4.78-.25 7.9 3.56 7.9 7.92v12.52h1.1v-13.9a7.65 7.65 0 0 0-7.63-7.64h-1.41v1.1zm42.58-23.6h-13.12c.52 2.9 0 5.9-1.57 8.53l-8.08 15.82a2.95 2.95 0 0 1-5.25 0l-8.08-15.82a12.4 12.4 0 0 1-1.56-8.5 5.51 5.51 0 0 0-4.96 5.49v15.33h1.41a9.3 9.3 0 0 1 9.28 9.3v13.89h35.51c3.04 0 5.5-2.47 5.5-5.5v-33.02a5.5 5.5 0 0 0-4.38-5.4z"/><path id="28dpc" d="M332.97 1906.43v7.87c0 1.19-.26 2.33-.77 3.39a.82.82 0 1 1-1.49-.72c.4-.83.61-1.73.61-2.67v-7.98h-1.4v6.45a6.28 6.28 0 0 1-6.27 6.28h-5.42a2.67 2.67 0 0 0-2.67 2.67v7.2c0 1.47 1.2 2.67 2.67 2.67h3.88a2.8 2.8 0 0 1 2.79 2.8v5.06a2.8 2.8 0 0 1-2.79 2.8h-2.45a.82.82 0 0 1 0-1.65h2.45c.63 0 1.14-.52 1.14-1.15v-5.07c0-.63-.51-1.14-1.14-1.14h-3.88a4.32 4.32 0 0 1-4.32-4.33v-7.19a4.32 4.32 0 0 1 4.32-4.32h5.42a4.62 4.62 0 0 0 4.62-4.63v-6.45m-32.34 3.51a.82.82 0 0 1 1 .6 6.14 6.14 0 1 0 10.43-5.76 6.14 6.14 0 0 0-10.48 2.87.82.82 0 1 1-1.6-.36c1.63-7.57 12.36-8.36 14.95-.86a7.79 7.79 0 0 1-14.9 4.52.83.83 0 0 1 .6-1zm7.06 23.47a2.37 2.37 0 0 1 2.23 2.4v1.66a3.23 3.23 0 0 0 3.23 3.24h7.91a.82.82 0 0 1 0 1.65h-7.9a4.88 4.88 0 0 1-4.88-4.89v-1.66c0-.4-.3-.73-.67-.75a.7.7 0 0 0-.74.7v3.24a4.76 4.76 0 0 0 4.76 4.76h16.7c1.48 0 2.68-1.2 2.68-2.67v-8.13c0-1.47-1.2-2.67-2.67-2.67h-3.89a2.8 2.8 0 0 1-2.79-2.8v-4.13a2.8 2.8 0 0 1 2.8-2.8h5.42c1.35 0 2.64-.43 3.71-1.25a.82.82 0 0 1 1.16.16c.27.36.2.88-.16 1.16a7.71 7.71 0 0 1-4.71 1.58h-5.43c-.63 0-1.14.52-1.14 1.15v4.14c0 .63.51 1.14 1.14 1.14h3.89a4.32 4.32 0 0 1 4.31 4.32v8.13a4.33 4.33 0 0 1-4.31 4.32h-16.71a6.41 6.41 0 0 1-6.4-6.4v-3.25a2.36 2.36 0 0 1 2.46-2.35z"/></defs><g><g transform="translate(-263 -1887)"><g><use fill="#fbd005" xlink:href="#28dpa"/></g><g><use fill="#38333a" xlink:href="#28dpb"/></g><g><use fill="#fbd005" xlink:href="#28dpc"/></g></g></g></svg>