<svg xmlns="http://www.w3.org/2000/svg" xmlns:xlink="http://www.w3.org/1999/xlink" width="98" height="98" viewBox="0 0 98 98"><defs><path id="5a9aa" d="M1142 3913a2.05 2.05 0 0 1-2.4 2.02l-8.6 8.6v-1.93l7.38-7.38a2.03 2.03 0 0 1 0-2.62l-44.07-44.07c-.36.3-.8.49-1.31.49-.5 0-.96-.19-1.31-.49l-44.07 44.07a2.03 2.03 0 0 1 0 2.62l5.38 5.38v1.93l-6.6-6.6-.34.03a2.05 2.05 0 1 1 .33-4.07l44.6-44.59a2.05 2.05 0 1 1 4.04 0l44.58 44.6c.1-.03.22-.04.33-.04 1.14 0 2.06.92 2.06 2.05zm-46.98 46.6a2.05 2.05 0 1 1-4.04 0l-10.6-10.6h1.93l9.38 9.38a2.03 2.03 0 0 1 2.62 0l9.38-9.38h1.93z"/><path id="5a9ab" d="M1075 3892.85a2.84 2.84 0 0 1 2.84-2.85h28.55c.76 0 1.49.3 2.02.84l7.4 7.45c.54.54.83 1.26.83 2.02v6.47l8.33 11.15c.12.16.2.36.2.57v19h1.88c.53 0 .95.43.95.95v7.6c0 .52-.42.95-.95.95h-19.87a.95.95 0 0 1-.95-.95v-.95h-28.4a2.84 2.84 0 0 1-2.83-2.85V3940h1.9v2.25c0 .52.42.95.94.95h28.4v-4.75c0-.52.42-.95.94-.95h1.9v-17.1a3.78 3.78 0 0 1 5.68-3.3v-16.8a1 1 0 0 0-.3-.68l-6.34-6.37v5.3c0 .53.43.95.95.95h3.79v1.9h-3.79a2.84 2.84 0 0 1-2.84-2.85v-6.65h-28.4a.95.95 0 0 0-.94.95V3906H1075zm39.75 35.15v-7.6a1.9 1.9 0 1 0-3.79 0v17.1h12.3v-18.68l-6.62-8.87V3928zm11.36 11.4h-17.99v5.7h17.99zm-62.26-14.8a.93.93 0 0 1 0-1.33.95.95 0 0 1 1.33 0l4.02 3.94 9.64-9.56a.95.95 0 0 1 1.34 0c.37.37.37.96 0 1.33l-10.3 10.21a.97.97 0 0 1-1.35 0z"/><path id="5a9ac" d="M1080.68 3895.7h1.9v1.9h-1.9zm3.78 0h17.04v1.9h-17.04zm-3.78 3.8h20.82v1.9h-20.82zm29.34 41.8h1.9v1.9h-1.9zm-23.02-31.42v26.24c0 1.04-.84 1.88-1.88 1.88h-26.25a1.87 1.87 0 0 1-1.87-1.88v-26.24c0-1.04.84-1.88 1.87-1.88h26.25c1.04 0 1.88.84 1.88 1.88zm-1.88 0h-26.25v26.24h26.25z"/></defs><g><g transform="translate(-1044 -3864)"><g><use fill="#fbd005" xlink:href="#5a9aa"/></g><g><use fill="#38333a" xlink:href="#5a9ab"/></g><g><use fill="#fbd521" xlink:href="#5a9ac"/></g></g></g></svg>