<svg xmlns="http://www.w3.org/2000/svg" xmlns:xlink="http://www.w3.org/1999/xlink" width="98" height="98" viewBox="0 0 98 98"><defs><path id="7boca" d="M555 3913a2.05 2.05 0 0 1-2.4 2.02l-10.6 10.6v-1.93l9.38-9.38a2.03 2.03 0 0 1 0-2.62l-4.38-4.38v-1.93l5.6 5.6.34-.03c1.14 0 2.06.92 2.06 2.05zm-46.98 46.6a2.05 2.05 0 1 1-4.04 0l-12.6-12.6h1.93l11.38 11.38a2.03 2.03 0 0 1 2.62 0L518.7 3947h1.93zm-48.63-44.58a2.05 2.05 0 1 1 0-4.04l17.61-17.6v1.93l-16.38 16.38a2.03 2.03 0 0 1 0 2.62L477 3930.7v1.93zm44.6-48.63a2.05 2.05 0 1 1 4.04 0l13.6 13.61h-1.94l-12.38-12.38c-.36.3-.8.49-1.31.49-.5 0-.96-.19-1.31-.49L492.3 3880h-1.94z"/><path id="7bocb" d="M528.53 3885.02v57.96c0 .56-.46 1.02-1.03 1.02h-45.47c-.57 0-1.03-.46-1.03-1.02v-57.96c0-.56.46-1.02 1.03-1.02h45.47c.57 0 1.03.46 1.03 1.02zm-2.06 1.01h-43.4v55.94h43.4zm-3.1 49.83c0 .57-.47 1.02-1.04 1.02h-14.46c-.57 0-1.04-.45-1.04-1.02 0-.56.47-1.01 1.04-1.01h14.46c.57 0 1.04.45 1.04 1.01zm19.63-41.69v10.17h-2.07v-9.15h-2.06v34.57c0 2.88-1.16 5.64-3.23 7.67l-.18.17c-.4.4-1.05.4-1.46 0l-.17-.17a10.68 10.68 0 0 1-3.23-7.67v-36.6a4.1 4.1 0 0 1 4.13-4.08 4.1 4.1 0 0 1 4.14 4.07h3.1c.57 0 1.03.46 1.03 1.02zm-6.26 36.61h-4.01c.2 1.7.89 3.3 2 4.61a8.65 8.65 0 0 0 2.01-4.61zm.06-35.6h-4.13v33.57h4.13zm0-2.03c0-1.12-.93-2.03-2.07-2.03-1.14 0-2.06.9-2.06 2.03zm-12.4 8.14c0 .56-.46 1.02-1.03 1.02h-12.4c-.57 0-1.04-.46-1.04-1.02s.47-1.02 1.04-1.02h12.4c.57 0 1.03.46 1.03 1.02z"/><path id="7bocc" d="M510.97 3895.19c0 .56-.47 1.01-1.04 1.01H499.6c-.57 0-1.03-.45-1.03-1.01 0-.57.46-1.02 1.03-1.02h10.33c.57 0 1.04.45 1.04 1.02zm-13.44 12.2c0 .56-.46 1.02-1.03 1.02h-6.2c-.57 0-1.03-.46-1.03-1.02s.46-1.02 1.03-1.02h6.2c.57 0 1.03.46 1.03 1.02zm26.87 0c0 .56-.46 1.02-1.03 1.02h-22.74c-.57 0-1.03-.46-1.03-1.02s.46-1.02 1.03-1.02h22.74c.57 0 1.03.46 1.03 1.02zm0 4.07c0 .56-.46 1.01-1.03 1.01h-37.2c-.57 0-1.04-.45-1.04-1.01s.47-1.02 1.04-1.02h37.2c.57 0 1.03.46 1.03 1.02zm-10.33 4.07c0 .56-.47 1.01-1.04 1.01h-26.86c-.57 0-1.04-.45-1.04-1.01 0-.57.47-1.02 1.04-1.02h26.86c.57 0 1.04.45 1.04 1.02zm10.33 0c0 .56-.46 1.01-1.03 1.01h-6.2c-.57 0-1.04-.45-1.04-1.01 0-.57.47-1.02 1.04-1.02h6.2c.57 0 1.03.45 1.03 1.02zm0 4.06c0 .57-.46 1.02-1.03 1.02h-18.6c-.57 0-1.04-.45-1.04-1.02 0-.56.47-1.01 1.04-1.01h18.6c.57 0 1.03.45 1.03 1.01zm-22.73 0c0 .57-.47 1.02-1.04 1.02h-14.46c-.57 0-1.04-.45-1.04-1.02 0-.56.47-1.01 1.04-1.01h14.46c.57 0 1.04.45 1.04 1.01zm22.73 4.07c0 .56-.46 1.02-1.03 1.02h-4.14c-.57 0-1.03-.46-1.03-1.02s.46-1.02 1.03-1.02h4.14c.57 0 1.03.46 1.03 1.02zm-32.03 0c0 .56-.47 1.02-1.04 1.02h-5.16c-.57 0-1.04-.46-1.04-1.02s.47-1.02 1.04-1.02h5.16c.57 0 1.04.46 1.04 1.02zm23.76 0c0 .56-.46 1.02-1.03 1.02h-19.63c-.57 0-1.04-.46-1.04-1.02s.47-1.02 1.04-1.02h19.63c.57 0 1.03.46 1.03 1.02zm-1.03-32.54c0 .56-.46 1.02-1.03 1.02h-18.6c-.57 0-1.04-.46-1.04-1.02s.47-1.02 1.04-1.02h18.6c.57 0 1.03.46 1.03 1.02zm-5.17 36.6c0 .57-.46 1.03-1.03 1.03h-22.73c-.57 0-1.04-.46-1.04-1.02s.47-1.02 1.04-1.02h22.73c.57 0 1.03.46 1.03 1.02z"/></defs><g><g transform="translate(-457 -3864)"><g><use fill="#fbd005" xlink:href="#7boca"/></g><g><use fill="#38333a" xlink:href="#7bocb"/></g><g><use fill="#fbd10d" xlink:href="#7bocc"/></g></g></g></svg>