<svg xmlns="http://www.w3.org/2000/svg" xmlns:xlink="http://www.w3.org/1999/xlink" width="75" height="75" viewBox="0 0 75 75"><defs><path id="ob1ea" d="M1208.58 1288.68a3.66 3.66 0 0 1-1.13 5.22 3.66 3.66 0 0 1-1.25 5 3.68 3.68 0 0 1-3.17 5.55h-19.18a2.43 2.43 0 0 1-2.12 1.26h-7.51a2.43 2.43 0 0 1-2.43-2.43v-20.04a2.43 2.43 0 0 1 2.43-2.43h7.51c.41 0 .8.1 1.13.28.7-.54 1.25-1.1 1.62-1.49a5.71 5.71 0 0 1 2.4-1.57 12.23 12.23 0 0 0 4.66-2.72 5.48 5.48 0 0 0 1.56-2.14 4.28 4.28 0 0 1 4.34-4.27c1.2 0 2.29.51 3.09 1.41.87.99 1.29 2.32 1.14 3.67-.24 2.21-1.5 4.67-3.42 6.83h7.91a4.31 4.31 0 0 1 2.42 7.87zm-.46-3.56c0-1.08-.88-1.96-1.96-1.96h-10.84a1.17 1.17 0 0 1-.74-2.09c2.63-2.13 4.5-5.01 4.76-7.34a2.43 2.43 0 0 0-.57-1.86 1.8 1.8 0 0 0-1.34-.62 1.92 1.92 0 0 0-1.97 1.94c0 .98-.81 2.36-2.16 3.68a14.5 14.5 0 0 1-5.7 3.4c-.5.16-.97.48-1.4.94-.46.49-1.17 1.18-2.05 1.86v2.67a1.17 1.17 0 0 1-2.34 0v-2.5a.08.08 0 0 0-.08-.08h-7.51a.08.08 0 0 0-.08.08v20.04c0 .04.03.08.08.08h7.51c.05 0 .08-.04.08-.08v-12.52a1.17 1.17 0 0 1 2.35 0v11.35h18.87a1.33 1.33 0 0 0 0-2.67 1.17 1.17 0 1 1 0-2.34h1.25a1.33 1.33 0 0 0 0-2.67 1.17 1.17 0 0 1 0-2.34h1.26a1.33 1.33 0 0 0 0-2.67 1.17 1.17 0 0 1 0-2.34h.62c1.08 0 1.96-.88 1.96-1.96zm19.8 9.72c.15.39.08.83-.18 1.15l-3.57 4.45.27 5.7c.02.42-.18.81-.53 1.04l-4.77 3.13-1.5 5.5c-.11.4-.42.72-.83.83l-5.5 1.5-3.13 4.78c-.23.34-.62.54-1.04.53l-5.7-.27-4.45 3.56a1.17 1.17 0 0 1-1.15.19l-5.34-2.02-5.34 2.02c-.39.14-.82.07-1.15-.19l-4.45-3.56-5.7.27c-.41.01-.81-.19-1.04-.53l-3.13-4.77-5.5-1.5c-.4-.12-.72-.43-.83-.83l-1.5-5.5-4.77-3.14a1.18 1.18 0 0 1-.53-1.04l.27-5.7-3.57-4.45a1.17 1.17 0 0 1-.18-1.15l2.02-5.34-2.02-5.34c-.15-.38-.08-.82.18-1.15l3.57-4.45-.27-5.7c-.02-.41.18-.8.53-1.04l4.77-3.13 1.5-5.5c.11-.4.42-.72.83-.83l5.5-1.5 3.13-4.77c.23-.35.62-.55 1.04-.53l5.7.27 4.45-3.57c.33-.26.76-.33 1.15-.18l5.34 2.02 5.34-2.02c.39-.15.82-.08 1.15.18l4.45 3.57 5.7-.27c.42-.02.8.18 1.04.53l3.13 4.77 5.5 1.5c.4.11.72.43.83.83l1.5 5.5 4.77 3.13c.35.23.55.63.53 1.04l-.27 5.7 3.57 4.45c.26.33.33.77.18 1.15l-2.02 5.34zm-4.37-5.75l1.94-5.13-3.43-4.28c-.18-.22-.27-.5-.26-.79l.26-5.47-4.58-3.01c-.24-.16-.41-.4-.49-.67l-1.44-5.29-5.29-1.44a1.17 1.17 0 0 1-.67-.5l-3-4.57-5.48.26c-.29 0-.57-.08-.8-.26l-4.27-3.43-5.12 1.94c-.27.1-.57.1-.84 0l-5.12-1.94-4.28 3.43c-.22.18-.5.27-.79.26l-5.47-.26-3.01 4.58c-.16.24-.4.41-.67.49l-5.29 1.44-1.44 5.29c-.08.27-.25.51-.5.67l-4.57 3 .26 5.48c0 .29-.08.57-.26.8l-3.43 4.27 1.94 5.13c.1.26.1.56 0 .83l-1.94 5.12 3.43 4.28c.18.22.27.5.26.8l-.26 5.47 4.58 3c.24.16.41.4.49.68l1.44 5.28 5.29 1.45c.27.07.51.25.67.49l3 4.58 5.48-.26c.29-.01.57.08.8.26l4.27 3.42 5.12-1.93a1.18 1.18 0 0 1 .84 0l5.12 1.93 4.28-3.42c.22-.18.5-.27.79-.26l5.47.26 3.01-4.58c.16-.24.4-.42.67-.5l5.29-1.44 1.44-5.28c.08-.28.25-.52.5-.68l4.57-3-.26-5.48c0-.28.08-.57.26-.79l3.43-4.28-1.94-5.12c-.1-.27-.1-.57 0-.83z"/><path id="ob1eb" d="M1179.16 1299.52a1.18 1.18 0 1 1-2.36 0c0-.65.53-1.18 1.17-1.18.65 0 1.19.53 1.19 1.18zm33.33-28.64a1.17 1.17 0 0 1-1.66-.07 28.38 28.38 0 0 0-1.7-1.7 1.17 1.17 0 1 1 1.6-1.73 30.82 30.82 0 0 1 1.83 1.85c.44.47.41 1.22-.07 1.65zm-5.58-5.08c-.35.55-1.07.7-1.62.36a27.7 27.7 0 0 0-34.37 3.79 27.55 27.55 0 0 0-8.07 18.41c-.28 6.91 2.01 13.62 6.45 18.9a1.18 1.18 0 0 1-1.8 1.5c-4.82-5.71-7.3-13-7-20.5a29.9 29.9 0 0 1 8.76-19.98 30.04 30.04 0 0 1 37.3-4.1c.54.35.7 1.07.35 1.62zm13.37 26.8a30.05 30.05 0 0 1-8.62 18.09 29.9 29.9 0 0 1-21.2 8.78 29.86 29.86 0 0 1-19.28-7.02 1.17 1.17 0 1 1 1.51-1.8 27.53 27.53 0 0 0 18.9 6.45 27.55 27.55 0 0 0 18.41-8.07 27.7 27.7 0 0 0 3.79-34.37 1.17 1.17 0 1 1 1.98-1.26 30.1 30.1 0 0 1 4.51 19.2z"/></defs><g><g transform="translate(-1153 -1252)"><use fill="#fbd005" xlink:href="#ob1ea"/></g><g transform="translate(-1153 -1252)"><use fill="#38333a" xlink:href="#ob1eb"/></g></g></svg>