<svg xmlns="http://www.w3.org/2000/svg" xmlns:xlink="http://www.w3.org/1999/xlink" width="98" height="98" viewBox="0 0 98 98"><defs><path id="ph9la" d="M1141 1936a2.05 2.05 0 0 1-2.4 2.02l-44.58 44.59a2.05 2.05 0 1 1-4.04 0l-44.59-44.6a2.05 2.05 0 1 1 0-4.04l21.61-21.6v1.94l-20.38 20.38a2.03 2.03 0 0 1 0 2.62l44.07 44.07a2.03 2.03 0 0 1 2.62 0l44.07-44.07c-.3-.36-.49-.8-.49-1.31 0-.5.19-.96.49-1.31l-44.07-44.07c-.36.3-.8.49-1.31.49-.5 0-.96-.19-1.31-.49l-8.38 8.38h-1.94l9.61-9.6a2.05 2.05 0 1 1 4.04 0l44.59 44.58a2.05 2.05 0 0 1 2.4 2.02z"/><path id="ph9lb" d="M1109 1909.34v37.32c0 .48-.4.88-.9.88h-2.85c-.5 0-.9-.4-.9-.88a1 1 0 0 0-1-.99 1 1 0 0 0-1.02 1c0 .47-.4.87-.9.87h-1.96v4.72a2.77 2.77 0 0 1-2.8 2.74h-22.87a2.77 2.77 0 0 1-2.8-2.74v-48.52a2.77 2.77 0 0 1 2.8-2.74h22.87c1.54 0 2.8 1.23 2.8 2.74v4.72h8.64c.49 0 .89.4.89.88zm-11.32 37.32a1 1 0 0 0-1-.99 1 1 0 0 0-1.02 1c0 .47-.4.87-.9.87a2.9 2.9 0 0 0-2.91 2.85c0 .49-.4.88-.9.88h-11.43c-.5 0-.9-.4-.9-.88a2.9 2.9 0 0 0-2.91-2.85c-.5 0-.9-.4-.9-.88v-37.32c0-.48.4-.88.9-.88a2.9 2.9 0 0 0 2.91-2.85c0-.49.4-.88.9-.88h11.43c.5 0 .9.4.9.88a2.9 2.9 0 0 0 2.91 2.85h2.92v-4.72a1 1 0 0 0-1-.99h-22.88a1 1 0 0 0-1.01 1v48.5a1 1 0 0 0 1 1h22.88a1 1 0 0 0 1.01-1zm-13.34-24.13v-13.2c0-.47.4-.87.9-.87h5.84a4.55 4.55 0 0 1-.94-1.98h-9.81a4.67 4.67 0 0 1-3.73 3.65v35.74a4.67 4.67 0 0 1 3.73 3.65h9.82c.16-.85.57-1.61 1.14-2.23a.86.86 0 0 1-.28-.63 1 1 0 0 0-1.01-.99 1 1 0 0 0-1.01 1c0 .47-.4.87-.9.87h-2.85c-.5 0-.9-.4-.9-.88v-13.19a5.59 5.59 0 0 1-4.76-5.47 5.58 5.58 0 0 1 4.76-5.47zm-2.98 5.47c0 1.79 1.28 3.3 2.98 3.69v-7.38c-1.7.4-2.98 1.9-2.98 3.69zm25.85-17.79h-21.08v35.58h1.22a2.8 2.8 0 0 1 2.65-1.87 2.8 2.8 0 0 1 2.65 1.87h1.37a2.8 2.8 0 0 1 2.65-1.87 2.8 2.8 0 0 1 2.65 1.87h1.37a2.8 2.8 0 0 1 2.65-1.87 2.8 2.8 0 0 1 2.65 1.87h1.22z"/><path id="ph9lc" d="M1088.15 1913.07c0-.48.4-.87.9-.87h13.34c.5 0 .9.39.9.87s-.4.88-.9.88h-13.34c-.5 0-.9-.4-.9-.88zm14.24 2.86h1.9c.5 0 .9.39.9.87 0 .49-.4.88-.9.88h-1.9c-.5 0-.9-.4-.9-.88s.4-.87.9-.87zm-14.24.87c0-.48.4-.87.9-.87h9.53c.49 0 .89.39.89.87 0 .49-.4.88-.9.88h-9.52c-.5 0-.9-.4-.9-.88zm0 3.74c0-.49.4-.88.9-.88h13.34c.5 0 .9.4.9.88s-.4.87-.9.87h-13.34c-.5 0-.9-.4-.9-.87zm17.04 3.73c0 .48-.4.87-.9.87h-1.9c-.5 0-.9-.39-.9-.87 0-.49.4-.88.9-.88h1.9c.5 0 .9.4.9.88zm-17.04 0c0-.49.4-.88.9-.88h9.53c.49 0 .89.4.89.88s-.4.87-.9.87h-9.52c-.5 0-.9-.39-.9-.87zm0 3.73c0-.48.4-.87.9-.87h13.34c.5 0 .9.39.9.87s-.4.87-.9.87h-13.34c-.5 0-.9-.39-.9-.87zm17.04 3.73c0 .49-.4.88-.9.88h-1.9c-.5 0-.9-.4-.9-.88s.4-.87.9-.87h1.9c.5 0 .9.39.9.87zm0 5.6c0 .48-.4.88-.9.88h-5.71c-.5 0-.9-.4-.9-.88s.4-.87.9-.87h5.71c.5 0 .9.39.9.87zm0 3.73c0 .49-.4.88-.9.88h-3.8c-.5 0-.9-.4-.9-.88s.4-.87.9-.87h3.8c.5 0 .9.39.9.87zm-17.04-9.33c0-.48.4-.87.9-.87h9.53c.49 0 .89.39.89.87 0 .49-.4.88-.9.88h-9.52c-.5 0-.9-.4-.9-.88z"/></defs><g><g transform="translate(-1043 -1887)"><g><use fill="#fbd005" xlink:href="#ph9la"/></g><g><use fill="#38333a" xlink:href="#ph9lb"/></g><g><use fill="#fbd005" xlink:href="#ph9lc"/></g></g></g></svg>