<svg xmlns="http://www.w3.org/2000/svg" xmlns:xlink="http://www.w3.org/1999/xlink" width="98" height="98" viewBox="0 0 98 98"><defs><path id="10y4a" d="M1141 4230a2.05 2.05 0 0 1-2.4 2.02l-44.58 44.59a2.05 2.05 0 1 1-4.04 0l-16.6-16.61h1.93l15.38 15.38a2.03 2.03 0 0 1 2.62 0l44.07-44.07a2.03 2.03 0 0 1 0-2.62L1123 4214.3v-1.93l15.6 15.6.34-.03c1.14 0 2.06.92 2.06 2.05zm-47.69-45.38a2.03 2.03 0 0 1-2.62 0l-44.07 44.07a2.03 2.03 0 0 1 0 2.62l6.38 6.38v1.93l-7.6-7.6a2.05 2.05 0 1 1 0-4.04l44.58-44.59a2.05 2.05 0 1 1 4.04 0l15.6 15.61h-1.93z"/><path id="10y4b" d="M1113.1 4246.39a162.77 162.77 0 0 1-8.55 6.28c-6.25 4.26-10.44 6.33-12.8 6.33-4.5 0-16.26-2.43-19.88-3.2v.6c0 .47-.39.86-.86.86h-2.6v.89c0 .47-.38.85-.86.85h-10.69a.86.86 0 0 1-.86-.85c0-.47.39-.85.86-.85h6.37v-.85c0-.47.38-.85.86-.85s.87.38.87.85v.85h1.72v-20.42h-8.95v17.87c0 .46-.39.85-.87.85a.86.86 0 0 1-.86-.85v-18.72c0-.47.39-.85.86-.85h10.69c.48 0 .86.38.86.85v.85h2.6c.47 0 .86.38.86.85v.71c6.29-.86 9.8.34 16.46 2.63 2.04.7 4.34 1.49 7.14 2.37l.03.01.04.01.02.01a3.47 3.47 0 0 1 2.13 4.33 3.82 3.82 0 0 1-4.37 2.68c-1.66-.3-11.96-1.68-12.06-1.7a.85.85 0 0 1-.74-.95c.06-.47.5-.8.97-.73.43.05 10.44 1.4 12.15 1.7 1.26.24 2.13-.6 2.4-1.48.44-1.45-.72-2.1-1.14-2.27-2.8-.89-5.1-1.68-7.13-2.37-6.69-2.3-9.88-3.39-15.9-2.52v13.9c3.04.65 15.45 3.24 19.88 3.24 4 0 15.87-8.74 20.16-12.15.63-.63 1.93-2.18 1.1-3.59a2.62 2.62 0 0 0-3.6-.9c-.04.02-5.08 2.46-9.21 4.18a.87.87 0 0 1-1.13-.46.85.85 0 0 1 .46-1.11c3.94-1.64 8.72-3.95 9.1-4.13a4.37 4.37 0 0 1 5.88 1.57c1 1.7.47 3.82-1.4 5.68zm-42.96 8.34v-16.15h-1.73v16.97h1.73v-.82zm17.87-27.26c0 .47-.39.85-.86.85h-8.07a.86.86 0 0 1-.87-.85c0-.47.39-.85.87-.85h8.07c.47 0 .86.38.86.85zm16.14 0c0 .47-.39.85-.87.85h-2.3a.86.86 0 0 1-.87-.85c0-.47.4-.85.87-.85h2.3c.48 0 .87.38.87.85z"/><path id="10y4c" d="M1107.6 4230.87a3.15 3.15 0 0 1-3.16 3.12h-26.52a3.15 3.15 0 0 1-3.17-3.12v-14.75a3.15 3.15 0 0 1 3.17-3.12H1099v1.7h-21.08c-.79 0-1.44.64-1.44 1.42v.28H1099v1.7h-22.52v2.84H1099v1.7h-22.52v8.23c0 .78.65 1.42 1.44 1.42h26.52c.8 0 1.44-.64 1.44-1.42V4223h1.73z"/><path id="10y4d" d="M1118.7 4211.33a.32.32 0 0 0-.15-.03c-.1 0-.2.04-.28.12l-.77.77a.36.36 0 0 0-.1.27v3.06c0 .53-.2.99-.57 1.37-.38.38-.83.57-1.36.57h-10c-.54 0-.99-.2-1.37-.57a1.87 1.87 0 0 1-.56-1.37v-10.04c0-.54.19-.99.56-1.37.38-.38.83-.57 1.36-.57h10a2.12 2.12 0 0 1 .66.1c.1 0 .2-.04.28-.12l.58-.6c.1-.09.14-.2.11-.34a.37.37 0 0 0-.21-.28c-.44-.2-.9-.3-1.41-.3h-10c-.96 0-1.78.34-2.45 1.02a3.36 3.36 0 0 0-1.02 2.46v10.04c0 .96.34 1.78 1.02 2.46.67.68 1.49 1.02 2.44 1.02h10c.96 0 1.78-.34 2.46-1.02a3.36 3.36 0 0 0 1.01-2.46v-3.84c0-.17-.08-.28-.24-.35z"/><path id="10y4e" d="M1105.38 4209.42l5.17 5.19c.2.2.42.29.69.29.26 0 .49-.1.68-.3l9.8-9.82c.18-.2-.72-.42-.72-.7 0-.26-.1.51-.29.32l.68-.33a.93.93 0 0 0-.69-.29c-.26 0-.5.1-.68.3l-8.78 8.8-4.17-4.17a.93.93 0 0 0-.68-.29c-.27 0-.5.1-.69.29l-.32-.67"/></defs><g><g transform="translate(-1043 -4181)"><g><use fill="#fbd005" xlink:href="#10y4a"/></g><g><use fill="#38333a" xlink:href="#10y4b"/></g><g><use fill="#fbd419" xlink:href="#10y4c"/></g><g><use fill="#38333a" xlink:href="#10y4d"/></g><g><use fill="#fbd005" xlink:href="#10y4e"/></g></g></g></svg>